<svg height="512pt" viewBox="0 -3 512 512" width="512pt" xmlns="http://www.w3.org/2000/svg"><path d="m10 428.542969h492v66.792969h-492zm0 0" fill="#e6e6e6"/><path d="m291.878906 471.9375c-.648437 0-1.308594-.070312-1.949218-.199219-.640626-.121093-1.269532-.320312-1.871094-.570312-.609375-.25-1.1875-.550781-1.730469-.921875-.546875-.359375-1.058594-.777344-1.519531-1.238282-.460938-.460937-.878906-.972656-1.238282-1.519531-.359374-.542969-.671874-1.121093-.921874-1.722656-.25-.609375-.4375-1.238281-.570313-1.867187-.128906-.652344-.199219-1.3125-.199219-1.960938 0-.652344.070313-1.308594.199219-1.949219.132813-.640625.320313-1.269531.570313-1.871093.25-.609376.5625-1.191407.921874-1.730469.359376-.550781.78125-1.058594 1.238282-1.519531.460937-.460938.972656-.878907 1.519531-1.238282.542969-.363281 1.121094-.671875 1.730469-.921875.601562-.25 1.230468-.441406 1.871094-.570312 1.289062-.257813 2.621093-.257813 3.910156 0 .628906.128906 1.261718.320312 1.871094.570312.597656.25 1.179687.558594 1.71875.921875.550781.359375 1.058593.777344 1.519531 1.238282.472656.460937.878906.96875 1.25 1.519531.359375.539062.671875 1.121093.921875 1.730469.25.601562.4375 1.230468.570312 1.871093.128906.640625.1875 1.296875.1875 1.949219 0 .648438-.058594 1.308594-.1875 1.960938-.132812.628906-.320312 1.257812-.570312 1.867187-.25.601563-.5625 1.179687-.921875 1.722656-.371094.546875-.789063 1.058594-1.25 1.519531-.460938.460938-.96875.878907-1.519531 1.238282-.539063.371094-1.121094.671875-1.71875.921875-.609376.25-1.242188.449219-1.871094.570312-.648438.128907-1.308594.199219-1.960938.199219zm0 0"/><path d="m402.332031 471.9375h-53.332031c-5.523438 0-10-4.476562-10-10s4.476562-10 10-10h53.332031c5.523438 0 10 4.476562 10 10s-4.476562 10-10 10zm0 0"/><path d="m301.9375 55.941406c0-25.375-20.570312-45.941406-45.941406-45.941406s-45.941406 20.566406-45.941406 45.941406h-43.363282v59.40625h178.609375v-59.40625zm0 0" fill="#4bc6ff"/><path d="m475.019531 80.910156-64.859375-61.851562-64.859375 61.851562v34.4375h129.71875zm0 0" fill="#ff5046"/><path d="m67.015625 55.65625-30.035156 59.691406h129.71875l-30.035157-59.691406zm0 0" fill="#e6e6e6"/><path d="m36.988281 115.347656h129.703125v313.207032h-129.703125zm0 0" fill="#fcc595"/><path d="m166.691406 115.347656h178.609375v313.207032h-178.609375zm0 0" fill="#a7dbd8"/><path d="m345.300781 115.347656h129.71875v313.207032h-129.71875zm0 0" fill="#fcc595"/><path d="m297.996094 428.554688h-84v-19.6875c0-23.195313 18.804687-42 42-42 23.195312 0 42 18.804687 42 42zm0 0" fill="#fcc595"/><path d="m199.871094 148.738281h40v42.925781h-40zm0 0" fill="#ffd170"/><path d="m239.871094 201.664062h-40c-5.523438 0-10-4.476562-10-10v-42.925781c0-5.523437 4.476562-10 10-10h40c5.523437 0 10 4.476563 10 10v42.925781c0 5.523438-4.476563 10-10 10zm-30-20h20v-22.925781h-20zm0 0"/><path d="m269.871094 148.738281h40v42.925781h-40zm0 0" fill="#ffd170"/><path d="m309.871094 201.664062h-40c-5.523438 0-10-4.476562-10-10v-42.925781c0-5.523437 4.476562-10 10-10h40c5.523437 0 10 4.476563 10 10v42.925781c0 5.523438-4.476563 10-10 10zm-30-20h20v-22.925781h-20zm0 0"/><path d="m199.871094 221.378906h40v42.925782h-40zm0 0" fill="#ffd170"/><path d="m239.871094 274.304688h-40c-5.523438 0-10-4.476563-10-10v-42.925782c0-5.523437 4.476562-10 10-10h40c5.523437 0 10 4.476563 10 10v42.925782c0 5.523437-4.476563 10-10 10zm-30-20h20v-22.925782h-20zm0 0"/><path d="m269.871094 221.378906h40v42.925782h-40zm0 0" fill="#ffd170"/><path d="m309.871094 274.304688h-40c-5.523438 0-10-4.476563-10-10v-42.925782c0-5.523437 4.476562-10 10-10h40c5.523437 0 10 4.476563 10 10v42.925782c0 5.523437-4.476563 10-10 10zm-30-20h20v-22.925782h-20zm0 0"/><path d="m199.871094 296.953125h40v42.925781h-40zm0 0" fill="#ffd170"/><path d="m239.871094 349.878906h-40c-5.523438 0-10-4.476562-10-10v-42.925781c0-5.519531 4.476562-10 10-10h40c5.523437 0 10 4.480469 10 10v42.925781c0 5.523438-4.476563 10-10 10zm-30-20h20v-22.925781h-20zm0 0"/><path d="m269.871094 296.953125h40v42.925781h-40zm0 0" fill="#ffd170"/><path d="m309.871094 349.878906h-40c-5.523438 0-10-4.476562-10-10v-42.925781c0-5.519531 4.476562-10 10-10h40c5.523437 0 10 4.480469 10 10v42.925781c0 5.523438-4.476563 10-10 10zm-30-20h20v-22.925781h-20zm0 0"/><path d="m382.707031 161.457031h54.90625v156.960938h-54.90625zm0 0" fill="#e6e6e6"/><path d="m437.613281 328.417969h-54.90625c-5.523437 0-10-4.476563-10-10v-156.960938c0-5.523437 4.476563-10 10-10h54.90625c5.523438 0 10 4.476563 10 10v156.960938c0 5.523437-4.476562 10-10 10zm-44.90625-20h34.90625v-136.960938h-34.90625zm0 0"/><path d="m74.386719 161.457031h54.90625v156.960938h-54.90625zm0 0" fill="#e6e6e6"/><path d="m129.292969 328.417969h-54.90625c-5.523438 0-10-4.476563-10-10v-156.960938c0-5.523437 4.476562-10 10-10h54.90625c5.523437 0 10 4.476563 10 10v156.960938c0 5.523437-4.476563 10-10 10zm-44.90625-20h34.90625v-136.960938h-34.90625zm0 0"/><path d="m74.386719 347.730469h54.90625v80.824219h-54.90625zm0 0" fill="#d38a5a"/><path d="m382.707031 347.730469h54.90625v80.824219h-54.90625zm0 0" fill="#d38a5a"/><path d="m502 418.542969h-16.980469v-337.632813c0-2.730468-1.121093-5.347656-3.097656-7.234375l-64.859375-61.855469c-3.863281-3.683593-9.941406-3.683593-13.804688 0l-47.957031 45.738282v-1.617188c0-5.523437-4.476562-10-10-10h-34.261719c-4.726562-26.089844-27.609374-45.941406-55.042968-45.941406s-50.316406 19.851562-55.046875 45.941406h-34.257813c-5.523437 0-10 4.476563-10 10v17.269532l-11.09375-22.046876c-1.699218-3.375-5.15625-5.507812-8.933594-5.507812h-69.648437c-3.78125 0-7.234375 2.132812-8.933594 5.507812l-30.035156 59.691407c-.769531 1.527343-1.121094 3.199219-1.058594 4.855469v302.832031h-16.988281c-5.523438 0-10 4.476562-10 10v66.792969c0 5.523437 4.476562 10 10 10h492c5.523438 0 10-4.476563 10-10v-66.792969c0-5.523438-4.476562-10-10-10zm-382.707031 0h-34.90625v-60.8125h34.90625zm57.398437-293.195313h158.609375v293.195313h-27.304687v-9.675781c0-28.671876-23.328125-52-52-52s-52 23.328124-52 52v9.675781h-27.304688zm250.921875 293.195313h-34.90625v-60.8125h34.90625zm-139.617187 0h-64v-9.675781c0-17.644532 14.355468-32 32-32 17.644531 0 32 14.355468 32 32zm159.617187 0v-70.8125c0-5.523438-4.476562-10-10-10h-54.90625c-5.523437 0-10 4.476562-10 10v70.8125h-17.40625v-293.195313h109.71875v293.195313zm-37.453125-385.664063 54.859375 52.316406v20.152344h-109.71875v-20.15625zm-233.46875 33.0625h33.367188c5.519531 0 10-4.476562 10-10 0-19.820312 16.121094-35.941406 35.9375-35.941406s35.941406 16.121094 35.941406 35.941406c0 5.523438 4.476562 10 10 10h33.363281v39.40625h-158.609375zm-103.511718-.285156h57.320312l19.972656 39.691406h-97.265625zm-26.191407 59.691406h109.703125v293.195313h-17.398437v-70.8125c0-5.523438-4.476563-10-10-10h-54.90625c-5.523438 0-10 4.476562-10 10v70.8125h-17.398438zm-26.988281 359.988282v-13.398438h232c5.523438 0 10-4.476562 10-10s-4.476562-10-10-10h-232v-13.394531h472v13.394531h-44.503906c-5.523438 0-10 4.476562-10 10s4.476562 10 10 10h44.503906v13.398438zm0 0"/></svg>