<svg id="Capa_1" enable-background="new 0 0 512 512" height="512" viewBox="0 0 512 512" width="512" xmlns="http://www.w3.org/2000/svg"><g><g><path d="m46.151 88.668h419.956v112.801h-419.956z" fill="#f4d8bc"/><path d="m46.151 88.668h44.908v112.801h-44.908z" fill="#f1cb86"/><path d="m46.151 206.072h419.956v145.762h-419.956z" fill="#f4d8bc"/><path d="m46.151 206.072h44.908v145.762h-44.908z" fill="#f1cb86"/><path d="m46.151 356.436h419.956v148.063h-419.956z" fill="#f4d8bc"/><path d="m46.151 356.436h44.908v148.063h-44.908z" fill="#f1cb86"/><g fill="#aa8080"><path d="m420.206 130.622h-44.552c-3.056 0-5.534 2.478-5.534 5.534v67.615h55.62v-67.615c0-3.056-2.478-5.534-5.534-5.534z"/><path d="m231.138 130.622h-44.552c-3.056 0-5.534 2.478-5.534 5.534v67.615h55.619v-67.615c.001-3.056-2.477-5.534-5.533-5.534z"/><path d="m420.206 280.987h-44.552c-3.056 0-5.534 2.478-5.534 5.534v67.615h55.62v-67.615c0-3.057-2.478-5.534-5.534-5.534z"/><path d="m231.138 280.987h-44.552c-3.056 0-5.534 2.478-5.534 5.534v67.615h55.619v-67.615c.001-3.057-2.477-5.534-5.533-5.534z"/><path d="m420.206 431.351h-44.552c-3.056 0-5.534 2.478-5.534 5.534v67.615h55.62v-67.615c0-3.056-2.478-5.534-5.534-5.534z"/><path d="m231.138 431.351h-44.552c-3.056 0-5.534 2.478-5.534 5.534v67.615h55.619v-67.615c.001-3.056-2.477-5.534-5.533-5.534z"/></g><path d="m403.464 130.622h-27.81c-3.056 0-5.534 2.478-5.534 5.534v67.615h27.81v-67.615c0-3.056 2.478-5.534 5.534-5.534z" fill="#8b5e5e"/><path d="m214.396 130.622h-27.81c-3.056 0-5.534 2.478-5.534 5.534v67.615h27.81v-67.615c0-3.056 2.478-5.534 5.534-5.534z" fill="#8b5e5e"/><path d="m403.464 280.987h-27.81c-3.056 0-5.534 2.478-5.534 5.534v67.615h27.81v-67.615c0-3.057 2.478-5.534 5.534-5.534z" fill="#8b5e5e"/><path d="m214.396 280.987h-27.81c-3.056 0-5.534 2.478-5.534 5.534v67.615h27.81v-67.615c0-3.057 2.478-5.534 5.534-5.534z" fill="#8b5e5e"/><path d="m403.464 431.351h-27.81c-3.056 0-5.534 2.478-5.534 5.534v67.615h27.81v-67.615c0-3.056 2.478-5.534 5.534-5.534z" fill="#8b5e5e"/><path d="m214.396 431.351h-27.81c-3.056 0-5.534 2.478-5.534 5.534v67.615h27.81v-67.615c0-3.056 2.478-5.534 5.534-5.534z" fill="#8b5e5e"/><path d="m115.328 130.622h-23.276c-3.056 0-5.534 2.478-5.534 5.534v33.597c0 3.056 2.478 5.534 5.534 5.534h23.276z" fill="#80b4fb"/><path d="m46.151 61.835h419.956v32.798h-419.956z" fill="#ecb780"/><path d="m46.151 61.835h44.908v32.798h-44.908z" fill="#e49542"/><path d="m478.62 57.208-25.061-46.728c-.984-1.835-2.898-2.98-4.981-2.98h-384.899c-2.082 0-3.996 1.145-4.98 2.98l-25.061 46.728c-2.019 3.765.708 8.322 4.981 8.322h435.021c4.271 0 6.999-4.557 4.98-8.322z" fill="#7b6c79"/><path d="m81.905 57.208 25.061-46.728c.984-1.835 2.898-2.98 4.98-2.98h-48.266c-2.082 0-3.996 1.145-4.98 2.98l-25.062 46.728c-2.019 3.765.708 8.322 4.98 8.322h48.267c-4.272 0-6.999-4.557-4.98-8.322z" fill="#665e68"/><path d="m136.604 130.622h-22.276v44.665h22.276c3.056 0 5.534-2.478 5.534-5.534v-33.597c0-3.056-2.478-5.534-5.534-5.534z" fill="#9dc6fb"/><path d="m304.396 130.622h-23.276c-3.056 0-5.534 2.478-5.534 5.534v33.597c0 3.056 2.478 5.534 5.534 5.534h23.276z" fill="#80b4fb"/><path d="m325.672 130.622h-22.276v44.665h22.276c3.056 0 5.534-2.478 5.534-5.534v-33.597c0-3.056-2.478-5.534-5.534-5.534z" fill="#9dc6fb"/><path d="m115.328 280.987h-23.276c-3.056 0-5.534 2.478-5.534 5.534v33.597c0 3.056 2.478 5.534 5.534 5.534h23.276z" fill="#80b4fb"/><path d="m136.604 280.987h-22.276v44.665h22.276c3.056 0 5.534-2.478 5.534-5.534v-33.597c0-3.056-2.478-5.534-5.534-5.534z" fill="#9dc6fb"/><path d="m304.396 280.987h-23.276c-3.056 0-5.534 2.478-5.534 5.534v33.597c0 3.056 2.478 5.534 5.534 5.534h23.276z" fill="#80b4fb"/><path d="m325.672 280.987h-22.276v44.665h22.276c3.056 0 5.534-2.478 5.534-5.534v-33.597c0-3.056-2.478-5.534-5.534-5.534z" fill="#9dc6fb"/><path d="m115.328 431.351h-23.276c-3.056 0-5.534 2.478-5.534 5.534v33.597c0 3.056 2.478 5.534 5.534 5.534h23.276z" fill="#80b4fb"/><path d="m136.604 431.351h-22.276v44.665h22.276c3.056 0 5.534-2.478 5.534-5.534v-33.597c0-3.055-2.478-5.534-5.534-5.534z" fill="#9dc6fb"/><path d="m304.396 431.351h-23.276c-3.056 0-5.534 2.478-5.534 5.534v33.597c0 3.056 2.478 5.534 5.534 5.534h23.276z" fill="#80b4fb"/><path d="m325.672 431.351h-22.276v44.665h22.276c3.056 0 5.534-2.478 5.534-5.534v-33.597c0-3.055-2.478-5.534-5.534-5.534z" fill="#9dc6fb"/></g><g><path d="m404.588 159.696h-2.973c-4.143 0-7.5 3.357-7.5 7.5s3.357 7.5 7.5 7.5h2.973c4.143 0 7.5-3.357 7.5-7.5s-3.358-7.5-7.5-7.5z"/><path d="m215.52 159.696h-2.974c-4.143 0-7.5 3.357-7.5 7.5s3.357 7.5 7.5 7.5h2.974c4.143 0 7.5-3.357 7.5-7.5s-3.357-7.5-7.5-7.5z"/><path d="m401.615 325.061h2.973c4.143 0 7.5-3.357 7.5-7.5s-3.357-7.5-7.5-7.5h-2.973c-4.143 0-7.5 3.357-7.5 7.5s3.357 7.5 7.5 7.5z"/><path d="m212.547 325.061h2.974c4.143 0 7.5-3.357 7.5-7.5s-3.357-7.5-7.5-7.5h-2.974c-4.143 0-7.5 3.357-7.5 7.5s3.357 7.5 7.5 7.5z"/><path d="m401.615 475.426h2.973c4.143 0 7.5-3.357 7.5-7.5s-3.357-7.5-7.5-7.5h-2.973c-4.143 0-7.5 3.357-7.5 7.5s3.357 7.5 7.5 7.5z"/><path d="m212.547 475.426h2.974c4.143 0 7.5-3.357 7.5-7.5s-3.357-7.5-7.5-7.5h-2.974c-4.143 0-7.5 3.357-7.5 7.5s3.357 7.5 7.5 7.5z"/><path d="m280.991 483.517h44.552c7.188 0 13.034-5.847 13.034-13.034v-33.597c0-7.188-5.847-13.034-13.034-13.034-4.718 0-39.831 0-44.552 0-7.188 0-13.034 5.847-13.034 13.034v33.597c0 7.187 5.846 13.034 13.034 13.034zm29.776-44.665h12.81v29.665h-12.81zm-27.81 0h12.811v29.665h-12.811z"/><path d="m136.474 273.486c-4.717 0-39.833 0-44.551 0-7.188 0-13.034 5.847-13.034 13.034v33.598c0 7.187 5.847 13.033 13.034 13.033h44.551c7.188 0 13.034-5.847 13.034-13.033v-33.598c.001-7.187-5.846-13.034-13.034-13.034zm-29.775 44.665h-12.81v-29.665h12.81zm27.81 0h-12.81v-29.665h12.81z"/><path d="m280.991 123.122c-7.188 0-13.034 5.847-13.034 13.034v33.597c0 7.188 5.847 13.034 13.034 13.034h44.552c7.188 0 13.034-5.847 13.034-13.034v-33.597c0-7.188-5.847-13.034-13.034-13.034-4.718 0-39.831 0-44.552 0zm14.776 44.665h-12.811v-29.665h12.811zm27.81 0h-12.81v-29.665h12.81z"/><path d="m136.474 423.852c-4.717 0-39.833 0-44.551 0-7.188 0-13.034 5.847-13.034 13.034v33.597c0 7.188 5.847 13.034 13.034 13.034h44.551c7.188 0 13.034-5.847 13.034-13.034v-33.597c.001-7.188-5.846-13.034-13.034-13.034zm-29.775 44.665h-12.81v-29.665h12.81zm27.81 0h-12.81v-29.665h12.81z"/><path d="m280.991 333.151h44.552c7.188 0 13.034-5.847 13.034-13.033v-33.598c0-7.188-5.847-13.034-13.034-13.034-4.718 0-39.831 0-44.552 0-7.188 0-13.034 5.847-13.034 13.034v33.598c0 7.187 5.846 13.033 13.034 13.033zm29.776-44.665h12.81v29.665h-12.81zm-27.81 0h12.811v29.665h-12.811z"/><path d="m91.924 123.122c-7.188 0-13.034 5.847-13.034 13.034v33.597c0 7.188 5.847 13.034 13.034 13.034h44.551c7.188 0 13.034-5.847 13.034-13.034v-33.597c0-7.188-5.847-13.034-13.034-13.034-4.718 0-39.834 0-44.551 0zm14.775 44.665h-12.81v-29.665h12.81zm27.81 0h-12.81v-29.665h12.81z"/><path d="m238.5 15c4.143 0 7.5-3.357 7.5-7.5s-3.358-7.5-7.5-7.5h-174.949c-4.854 0-9.295 2.657-11.59 6.936l-25.061 46.727c-2.207 4.114-2.093 8.962.304 12.969 2.397 4.006 6.617 6.398 11.286 6.398h.032v123.263c-3.927.239-7.04 3.49-7.04 7.477s3.113 7.238 7.04 7.477v135.411c-3.927.239-7.04 3.49-7.04 7.477s3.113 7.238 7.04 7.477v135.412c-3.927.239-7.04 3.49-7.04 7.477 0 4.143 3.357 7.5 7.5 7.5h7.04 426.995c4.143 0 7.5-3.357 7.5-7.5 0-3.987-3.112-7.237-7.039-7.477v-135.412c3.927-.239 7.039-3.49 7.039-7.477s-3.112-7.237-7.039-7.477v-135.411c3.927-.239 7.039-3.49 7.039-7.477s-3.112-7.237-7.039-7.477v-29.07c0-4.143-3.357-7.5-7.5-7.5s-7.5 3.357-7.5 7.5v29.047h-25.368v-60.114c0-7.188-5.847-13.034-13.033-13.034h-44.552c-7.188 0-13.034 5.847-13.034 13.034v60.114h-118.448v-60.114c0-7.188-5.847-13.034-13.034-13.034h-44.552c-7.187 0-13.033 5.847-13.033 13.034v60.114h-119.902v-94.138h404.956v30.091c0 4.143 3.357 7.5 7.5 7.5s7.5-3.357 7.5-7.5c0-6.68 0-52.994 0-59.193 4.787 0 8.958-2.457 11.316-6.397 2.397-4.006 2.513-8.854.306-12.97l-25.062-46.73c-2.296-4.277-6.736-6.933-11.589-6.933h-174.949c-4.143 0-7.5 3.357-7.5 7.5s3.357 7.5 7.5 7.5h173.844l23.078 43.03h-4.443-419.957-4.443l23.078-43.03zm-184.978 58.03h404.956v14.103h-404.956zm175.521 423.97h-40.619v-58.148h40.619zm189.067 0h-40.619v-58.148h40.619zm-40.619-358.878h40.619v58.148h-40.619zm-189.067 0h40.619v58.148h-40.619zm-134.902 73.149h404.956v135.364h-25.368v-60.114c0-7.188-5.847-13.034-13.033-13.034h-44.552c-7.188 0-13.034 5.847-13.034 13.034v60.114h-118.448v-60.114c0-7.188-5.847-13.034-13.034-13.034h-44.552c-7.187 0-13.033 5.847-13.033 13.034v60.114h-119.902zm364.588 77.215v58.148h-40.619v-58.148zm-189.067 0v58.148h-40.619v-58.148zm-175.521 73.149h404.956v135.365h-25.368v-60.114c0-7.188-5.847-13.034-13.033-13.034h-44.552c-7.188 0-13.034 5.847-13.034 13.034v60.114h-118.448v-60.114c0-7.188-5.847-13.034-13.034-13.034h-44.552c-7.187 0-13.033 5.847-13.033 13.034v60.114h-119.902z"/></g></g></svg>